<svg width="32" height="32" viewBox="0 0 32 32" fill="none" xmlns="http://www.w3.org/2000/svg">
  <defs>
    <linearGradient id="freeGradient" x1="0%" y1="0%" x2="100%" y2="100%">
      <stop offset="0%" style="stop-color:#f97316;stop-opacity:1" />
      <stop offset="100%" style="stop-color:#ef4444;stop-opacity:1" />
    </linearGradient>
  </defs>
  
  <!-- Infinity symbol -->
  <path d="M8 16C8 13.8 9.8 12 12 12C14.2 12 16 13.8 16 16C16 18.2 17.8 20 20 20C22.2 20 24 18.2 24 16C24 13.8 22.2 12 20 12C17.8 12 16 13.8 16 16C16 18.2 14.2 20 12 20C9.8 20 8 18.2 8 16Z" 
        stroke="url(#freeGradient)" 
        stroke-width="2.5" 
        fill="none" 
        stroke-linecap="round" 
        stroke-linejoin="round"/>
  
  <!-- Small sparkle/star accent -->
  <g stroke="url(#freeGradient)" stroke-width="2" stroke-linecap="round">
    <path d="M6 8L6 6M6 6L8 6M6 6L4 6M6 6L6 4"/>
    <path d="M26 26L26 24M26 24L28 24M26 24L24 24M26 24L26 22"/>
  </g>
</svg>