<svg width="32" height="32" viewBox="0 0 32 32" fill="none" xmlns="http://www.w3.org/2000/svg">
  <defs>
    <linearGradient id="reportGradient" x1="0%" y1="0%" x2="100%" y2="100%">
      <stop offset="0%" style="stop-color:#0ea5e9;stop-opacity:1" />
      <stop offset="100%" style="stop-color:#0284c7;stop-opacity:1" />
    </linearGradient>
  </defs>
  
  <!-- Chart background -->
  <rect x="4" y="6" width="24" height="20" rx="2" fill="url(#reportGradient)" opacity="0.1" stroke="url(#reportGradient)" stroke-width="1.5"/>
  
  <!-- Bar chart -->
  <rect x="7" y="18" width="3" height="6" rx="1" fill="url(#reportGradient)" opacity="0.8"/>
  <rect x="12" y="14" width="3" height="10" rx="1" fill="url(#reportGradient)" opacity="0.8"/>
  <rect x="17" y="16" width="3" height="8" rx="1" fill="url(#reportGradient)" opacity="0.8"/>
  <rect x="22" y="12" width="3" height="12" rx="1" fill="url(#reportGradient)" opacity="0.8"/>
  
  <!-- Trend line -->
  <path d="M8.5 20 L13.5 16 L18.5 18 L23.5 14" 
        stroke="url(#reportGradient)" 
        stroke-width="2" 
        fill="none" 
        stroke-linecap="round"/>
  
  <!-- Data points -->
  <circle cx="8.5" cy="20" r="1.5" fill="url(#reportGradient)"/>
  <circle cx="13.5" cy="16" r="1.5" fill="url(#reportGradient)"/>
  <circle cx="18.5" cy="18" r="1.5" fill="url(#reportGradient)"/>
  <circle cx="23.5" cy="14" r="1.5" fill="url(#reportGradient)"/>
  
  <!-- Title area -->
  <rect x="6" y="8" width="8" height="1.5" rx="0.5" fill="url(#reportGradient)" opacity="0.6"/>
  <rect x="6" y="10" width="12" height="1" rx="0.5" fill="url(#reportGradient)" opacity="0.4"/>
</svg>